<svg id="Calque_1" xmlns="http://www.w3.org/2000/svg" width="300" height="300"><style>.st0{fill:#4c53e6}</style><path class="st0" d="M21.5 40.7l-5.4 9.6 5 13 13-5L49 96.9l13-5 5.4-9.6-19.9-51.6-26 10zm1.6 1.8l21.5-8.2-3.7 6.6L19.4 49l3.7-6.5zm36 48.1L50.2 94 35.4 55.4l-13 5-3.4-8.9 21.9-8.4 18.2 47.5z"/><ellipse transform="rotate(-21.013 67.284 39.1)" class="st0" cx="67.3" cy="39.1" rx="8.1" ry="8.1"/><path class="st0" d="M65 82.2l-4 7.1L42.8 42l4-7.1zM115.4 73.5l-19.8 9.1-7.1 26.6 26.6 7.1L94 195.5l26.6 7.1 19.8-9.1 28.2-105.7-53.2-14.3zm.4 4.7l43.9 11.7-13.5 6.3-43.9-11.7 13.5-6.3zm1.8 118.9l-18.1-4.9 21.1-79.1L94 106l4.9-18.1 44.8 12-26.1 97.2z"/><ellipse transform="rotate(-75.024 190.374 124.294)" class="st0" cx="190.4" cy="124.3" rx="16" ry="16"/><path class="st0" d="M136.7 190.5l-14.8 6.8 26-97.1 14.6-6.7zM219 147.1l-7.5.9-5.2 8.1 8.1 5.2-15.5 24 8.1 5.2 7.5-.9 20.7-32.1-16.2-10.4zm-.4 1.6l13.3 8.6-5.2.6-13.3-8.6 5.2-.6zm-12.1 39.7l-5.5-3.6 15.5-24-8.1-5.2 3.6-5.5 13.6 8.8-19.1 29.5z"/><ellipse transform="rotate(-57.168 238.5 171.983)" class="st0" cx="238.5" cy="172" rx="5.6" ry="5.6"/><path class="st0" d="M213.5 188.3l-5.5.6 19-29.4 5.5-.7zM236.5 78.5l-7.4 7.8 1.6 13.5 13.5-1.6 4.8 40.2 13.5-1.6 7.4-7.8-6.4-53.7-27 3.2zm1 2.1l22.3-2.7-5.1 5.4-22.3 2.7 5.1-5.4zm22.7 54.3l-9.3 1.1-4.8-40.2-13.5 1.6-1.1-9.3 22.8-2.7 5.9 49.5z"/><ellipse transform="rotate(-6.817 280.295 87.998)" class="st0" cx="280.3" cy="88" rx="7.9" ry="7.9"/><path class="st0" d="M267.7 128.3l-5.5 5.8-5.8-49.3 5.4-5.8zM220.5 210.8l-6 11.5 6.3 15.1 15.1-6.3 18.7 44.9 15.1-6.3 6-11.5-25-60.1-30.2 12.7zm1.9 2l25-10.4-4.1 7.9-25 10.4 4.1-7.9zm44 55.5l-10.3 4.3-18.7-44.9-15.1 6.3-4.3-10.3 25.5-10.6 22.9 55.2z"/><ellipse transform="rotate(-22.616 274.297 207.5)" class="st0" cx="274.3" cy="207.5" rx="9.5" ry="9.5"/><path class="st0" d="M273 258.2l-4.5 8.5-22.9-55.1 4.4-8.5zM26.6 219l-9.9 4.9-3.2 13.6 13.6 3.2-9.4 40.4 13.6 3.2 9.9-4.9 12.6-54-27.2-6.4zm.2 2.3l22.5 5.2-6.8 3.4-22.5-5.2 6.8-3.4zm2.9 60.3l-9.3-2.2 9.4-40.4-13.6-3.2 2.2-9.3 22.9 5.3-11.6 49.8z"/><ellipse transform="rotate(-76.879 65.461 243.5)" class="st0" cx="65.5" cy="243.5" rx="8.1" ry="8.1"/><path class="st0" d="M39.3 277.9l-7.4 3.7L43.5 232l7.3-3.6zM203.2 9.9l-12.3.4-9.5 12.3 12.3 9.5-28.3 36.5 12.3 9.5 12.3-.4L227.8 29 203.2 9.9zm-.8 2.5l20.3 15.7-8.4.3L194 12.7l8.4-.3zm-25.2 62.4l-8.4-6.5 28.3-36.5-12.3-9.5 6.5-8.4L212 29.8l-34.8 45z"/><ellipse transform="rotate(-52.222 231.144 52.81)" class="st0" cx="231.1" cy="52.8" rx="9.1" ry="9.1"/><path class="st0" d="M188.6 75.5l-9.1.3L214.3 31l9.1-.3zM93.6 232.5l-11.6 13 3.2 21.8L107 264l9.6 64.7 21.8-3.2 11.6-13-12.9-86.5-43.5 6.5zm1.7 3.3l36-5.4-8 8.9-36 5.4 8-8.9zm39.1 86.8l-14.9 2.2-9.6-64.7-21.8 3.2-2.2-14.9 36.7-5.5 11.8 79.7z"/><ellipse transform="rotate(-8.467 164.695 245.907)" class="st0" cx="164.7" cy="245.9" rx="12.8" ry="12.8"/><path class="st0" d="M146.3 311.6l-8.5 9.6-11.9-79.4 8.6-9.6zM93.1-76L81.4-63l3.2 21.8 21.8-3.2 9.6 64.7 21.8-3.2 11.6-13-12.9-86.5L93.1-76zm1.7 3.3l36-5.4-8 8.9-36 5.4 8-8.9zm39.1 86.8L119 16.3l-9.6-64.7-21.8 3.2-2.2-14.9 36.7-5.5 11.8 79.7z"/><ellipse transform="rotate(-8.467 164.203 -62.591)" class="st0" cx="164.2" cy="-62.6" rx="12.8" ry="12.8"/><path class="st0" d="M145.8 3.1l-8.5 9.6-11.9-79.4 8.6-9.6zM-10.5 151.7l3.9 13.4 16.2 7 7-16.2 48.1 20.9 7-16.2-3.9-13.4-64.3-28-14 32.5zm2.9.1L4 125.1l2.7 9.2L-4.9 161l-2.7-9.2zm75.7 10.3l-4.8 11.1-48.1-20.9-7 16.2-11.2-4.9 11.9-27.3 59.2 25.8z"/><ellipse transform="rotate(-66.496 28.762 108.883)" class="st0" cx="28.8" cy="108.9" rx="10.3" ry="10.3"/><path class="st0" d="M65.7 149.3l2.8 9.9-59-25.6-2.8-10zM289 151.7l3.9 13.4 16.2 7 7-16.2 48.1 20.9 7-16.2-3.9-13.4-64.3-28-14 32.5zm2.9.1l11.6-26.7 2.7 9.2-11.6 26.7-2.7-9.2zm75.7 10.3l-4.8 11.1-48.1-20.9-7 16.2-11.1-4.8 11.9-27.3 59.1 25.7z"/><path class="st0" d="M365.2 149.3l2.8 9.9-59-25.6-2.8-10z"/></svg>