<svg xmlns="http://www.w3.org/2000/svg" xmlns:xlink="http://www.w3.org/1999/xlink" viewBox="0 0 2334.38 1603.76"><defs><style>.cls-1{fill:#f6d9be;}.cls-2{fill:#9393ff;}.cls-3{fill:#fff089;}.cls-4{fill:#d5bca0;}.cls-5{fill:#fff;}.cls-6{fill:#7171ff;}.cls-7{fill:#14c36f;}.cls-8{fill:#f1f1f1;}.cls-9{fill:#ff9148;}.cls-10{fill:#989898;}.cls-11{fill:#ff7031;}.cls-12{fill:#a5ffd3;}.cls-13{fill:#a57c52;}.cls-14{fill:#ff5f81;}.cls-15{fill:url(#Dégradé_sans_nom_5);}.cls-16{fill:#60d9fa;}.cls-17,.cls-18,.cls-19{fill:#2a36d8;}.cls-17{opacity:0.4;}.cls-18{opacity:0.2;}.cls-19{opacity:0.1;}.cls-20{fill:none;stroke:blue;stroke-linecap:round;stroke-linejoin:round;stroke-width:11px;}</style><linearGradient id="Dégradé_sans_nom_5" x1="1167.41" y1="373.54" x2="1329" y2="83.27" gradientUnits="userSpaceOnUse"><stop offset="0" stop-color="#fff"/><stop offset="1" stop-color="#fff" stop-opacity="0"/></linearGradient></defs><title>Fichier 2</title><g id="Calque_2" data-name="Calque 2"><g id="base"><path class="cls-1" d="M1824.38,895.76l-30.7-73.32a373.44,373.44,0,0,1-54.87,25.92c-9.33,3.5-19.47,6.67-29.1,4.12-8.19-2.17-14.87-8.29-19.47-15.4s-7.38-15.21-10.11-23.22q4.81-2.57,9.36-5.57a122.62,122.62,0,0,0,51.77-75.23,127.56,127.56,0,0,1-70.8,42.16c-1.31.27-2.64.53-4,.74-6.33,1-12.84,1.13-18.68-1.34l-10.79-23c-20,13.22-44.25-4.3-44.25-4.3l6-46.66c6-46.67-.66-44.67-34-74.67a105.13,105.13,0,0,1-7.92-33.12,130.33,130.33,0,0,1,4-43.68c28.15,1.52,69.22-2.91,116-28.87-5.33,33.34-7,35.34-7,35.34l76.67-35.34s36,123.34,37,123.67,28-20,28-20l-2.28-52.38c3.22-9.64,7.75-19.23,15.49-25.82s19.27-9.53,28.33-4.92c10.4,5.3,14.24,18.07,16.21,29.58a243.53,243.53,0,0,1,3.47,39.89c0,1.77,0,3.55-.07,5.33l41.85,45.65,65,169.11v.21c-11.5.69-26,3.16-44,8.68C1895.34,851.89,1856.1,874.3,1824.38,895.76Z"/><path class="cls-2" d="M2019.43,892s87.67,24,85.67,178.67-35.34,288.66-24.67,368.66S2105.16,1546,2105.16,1546H1651.1L1593,1505.06l-99.34-69.92L1445.1,1401l31-123,33.67,16,166,78.68,59.4,28.15s1.38-6.65,3.81-18.3c2.88-13.85,7.24-34.79,12.5-60l-7.41-283.77,32.66-40-16.55-33.72-6.78-13.82a649,649,0,0,1,71-55.32c31.72-21.46,71-43.87,111-56.48,18-5.52,32.51-8,44-8.68,30.2-1.8,40,8.68,40,8.68Z"/><path class="cls-3" d="M1560.79,549.15a130.33,130.33,0,0,0-4,43.68l-1.38.11s-64.36-8-88-64.32l20.67.66s-13.34-28-17.67-58c37.67-13,67-42.66,153.67-54.66-29.67-22.34-31.34-22.34-31.34-22.34s132.67-59.66,196.34,12l5-34s29.33,20,30.66,55.34c34.67,11,47.89,22,47.89,22L1853.1,462s53,59.33,61.33,199.33l-41.85-45.65c.06-1.78.08-3.56.07-5.33a243.53,243.53,0,0,0-3.47-39.89c-2-11.51-5.81-24.28-16.21-29.58-9.06-4.61-20.6-1.68-28.33,4.92s-12.27,16.18-15.49,25.82l2.28,52.38s-27,20.33-28,20-37-123.67-37-123.67l-76.67,35.34s1.67-2,7-35.34C1630,546.24,1588.94,550.67,1560.79,549.15Z"/><path class="cls-4" d="M473.87,843.42l59.91,12a84.06,84.06,0,0,0-1.71,14.11A511.4,511.4,0,0,1,468.6,895l-1-.1C469.82,872.53,472.11,855.3,473.87,843.42Z"/><path class="cls-4" d="M532.07,869.54a84.06,84.06,0,0,1,1.71-14.11c6.62-32,29.9-54.32,52-49.75,8.3,1.71,15.25,7,20.34,14.57-16.44,15.54-39.18,32-70.61,47.6l-.13.06C534.28,868.46,533.18,869,532.07,869.54Z"/><path class="cls-5" d="M1741.26,733.06a122.62,122.62,0,0,1-51.77,75.23l-23-32.33c1.34-.21,2.67-.47,4-.74A127.56,127.56,0,0,0,1741.26,733.06Z"/><path class="cls-6" d="M1760.21,964.9l16.55,33.72-32.66,40,7.41,283.77c-5.26,25.25-9.62,46.19-12.5,60h0l-27.2-282.27h0l-7.2-74.7,39.5-27.5-8.9-25.49Z"/><path class="cls-6" d="M1739,1382.43h0c-2.43,11.65-3.81,18.3-3.81,18.3l-59.4-28.15,36-272.42Z"/><polygon class="cls-6" points="1651.1 1545.95 1559.1 1545.95 1593.01 1505.07 1593.01 1505.06 1651.1 1545.95"/><path class="cls-7" d="M1255.73,1546H1220.6c32.8-128.72,35.1-245.42,35.13-246.82l2.34,12a49.57,49.57,0,0,0,27.52,35.48,8.59,8.59,0,0,0,2,.79c.55,0,5,11.15,10.23,25.12a68.52,68.52,0,0,0,78.09,42.81L1445.1,1401l48.57,34.19L1505.1,1546Z"/><path class="cls-1" d="M1470.64,1264.46l5.46,13.49-31,123-69.18,14.43a68.52,68.52,0,0,1-78.09-42.81c-5.28-14-9.68-25.12-10.23-25.12a8.59,8.59,0,0,1-2-.79,49.57,49.57,0,0,1-27.52-35.48l-2.34-12h0l-3.63-18.67,12-1.14,67.75-6.43a106.42,106.42,0,0,0,74.95-41.92l2.27-3,15.76,1.77a56.14,56.14,0,0,1,45.78,34.74Z"/><path class="cls-5" d="M1264.13,1240v-28H1439.6v19.5l-1.79,1.31a55.67,55.67,0,0,0-13-3L1409.1,1228l-2.27,3a106.42,106.42,0,0,1-74.95,41.92l-67.75,6.43Z"/><path class="cls-8" d="M1268,380.24a20.78,20.78,0,0,0,4.46-5.35l144.67-247.51h40.57a28.86,28.86,0,0,1,28.86,28.85v253.3a28.86,28.86,0,0,1-28.86,28.85h-58.44V545.09l-92.77-106.71H1125.08v-3.15a28.86,28.86,0,0,0-28.86-28.85h-71.64V156.23a28.85,28.85,0,0,1,28.85-28.85h142.1l-88.24,151a21,21,0,0,0,7.55,28.76l128.88,75.33A21,21,0,0,0,1268,380.24Z"/><path class="cls-9" d="M1264.69,900.92c-64.8-23.52-69-76.69-69-77.68-22.57,44.26-73.69,98.49-188.88,101.48v0s8.66,51-9.11,87.51a66.72,66.72,0,0,1-14.91,20.37c-36.57,33.25,66.28,92.15,4.14,177.16L965.32,1218l-83.12,31.82c-74.67-122,29.23-182.58,21.9-219.91s-19.34-92.67-10.67-130.67,47.33-35.33,46-65.66,2.25-61.84,79.59-117,70-3.45,148.29-17.45S1247,736.45,1247,736.45s53.74-3.17,69.08,47.5,15.17,51.33,39.58,82,39.42,70-11.08,111.33c-36.95,30.25-17.07,92.45,1.29,131.54a294.4,294.4,0,0,0,16.7,31c12.84,20.16,28.84,41.49,9.51,72.16h-108v18c-18-2-30-18-30-18s-7.4-8.46-9.88-24.39c-2.35-15-.3-36.75,16.54-64.28,34.67-56.66,31.4-104,23.37-135.33a106.46,106.46,0,0,1-2.62-15.47v0c-3.17-31,2.62-70,2.62-70Z"/><path class="cls-10" d="M1325.38,29.4l92.93,54.31a21,21,0,0,1,7.55,28.77l-8.71,14.9L1272.48,374.89a20.78,20.78,0,0,1-4.46,5.35,21,21,0,0,1-24.3,2.19L1114.84,307.1a21,21,0,0,1-7.55-28.76l88.24-151,65.14-111.45a21,21,0,0,1,28.76-7.55ZM1219.73,313.2a19,19,0,1,0-26,6.82A19,19,0,0,0,1219.73,313.2Z"/><path class="cls-1" d="M1019,1082.77a262.22,262.22,0,0,1-21.35-70.52c17.77-36.49,9.11-87.51,9.11-87.51v0c115.19-3,166.31-57.22,188.88-101.48.07,1,4.23,54.16,69,77.68l-.56,1.52s-5.79,39-2.62,70v0c-9.4,87.72-45.58,140.35-82.69,166.67-22.56,16-45.46,22.28-62.89,20.8C1065.58,1155.67,1036,1118.67,1019,1082.77Zm50.58-35.32c54,94.5,113.5,44,139.5-12.5C1158.1,1068,1069.6,1047.45,1069.6,1047.45Z"/><path class="cls-11" d="M1264.13,988c8,31.33,11.3,78.67-23.37,135.33-16.84,27.53-18.89,49.23-16.54,64.28h0l-45.92-8.61h0l.54-39.8c37.11-26.32,73.29-79,82.69-166.67A106.46,106.46,0,0,0,1264.13,988Z"/><path class="cls-12" d="M986.9,1209.78l37.61-14.4,1.59,32.57s32,44.5,99,32c31-7,41.25-20.5,52.62-39.5.23-17.23.42-30.8.56-41.5h0l45.92,8.61h0c2.48,15.93,9.88,24.39,9.88,24.39s12.06,16,30,18v49.36l-12,1.14,3.63,18.67h0c0,1.4-2.33,118.1-35.13,246.82H1024.51C940.42,1411,965.32,1218,965.32,1218Z"/><path class="cls-1" d="M1178.82,1139.15l-.54,39.8c-.14,10.7-.33,24.27-.56,41.5-11.37,19-21.62,32.5-52.62,39.5-67,12.5-99-32-99-32l-1.59-32.57L1019,1082.77c17,35.9,46.56,72.9,96.91,77.18C1133.36,1161.43,1156.26,1155.15,1178.82,1139.15Z"/><path class="cls-5" d="M1209.1,1035c-26,56.5-85.5,107-139.5,12.5C1069.6,1047.45,1158.1,1068,1209.1,1035Z"/><path class="cls-11" d="M1019,1082.77l5.49,112.61-37.61,14.4c62.14-85-40.71-143.91-4.14-177.16a66.72,66.72,0,0,0,14.91-20.37A262.22,262.22,0,0,0,1019,1082.77Z"/><path class="cls-7" d="M965.91,1536.09q3.21,5,6.69,9.86H767.1l4-51.44c17.13-2.44,35.92-7.22,43.54-16.56,15.5-19,25.5-52.5,24-93.5,13-28.5,11.5-56.5-24-56.5,0,0,0-17.5-1.5-45a11.74,11.74,0,0,0-1.91-5.91l71-27.18L965.32,1218S940.42,1411,1024.51,1546H972.6Z"/><path class="cls-13" d="M965.91,1536.09l6.69,9.86Q969.12,1541.14,965.91,1536.09Z"/><path class="cls-1" d="M814.6,1328c35.5,0,37,28,24,56.5,1.5,41-8.5,74.5-24,93.5-7.62,9.34-26.41,14.12-43.54,16.56a271.45,271.45,0,0,1-33.65,2.56,185.62,185.62,0,0,0,7.69-24.8c-13.5-32.82-47.62-33.94-47.62-33.94-5.59-38.18-30.88-41.23-46.44-39.29,0,0-9.12-18.35-1.12-36,3.21-7.08,9.21-14,19.68-19.64,5.5,32,12,33.18,32,39.09S783.6,1378,814.6,1328Z"/><path class="cls-5" d="M813.1,1283c1.5,27.5,1.5,45,1.5,45-31,50-93,60.5-113,54.59s-26.5-7.09-32-39.09c-2-14-5.71-30,2.9-43.55-17.09,37.43,47.6,31.55,83.6,22S813.1,1302.43,813.1,1283Z"/><path class="cls-5" d="M752.79,1268.23c26.37-3.24,51.41-1.89,58.4,8.81a11.74,11.74,0,0,1,1.91,5.91c0,19.48-21,29.45-57,39s-100.69,15.4-83.6-22h0c4-6.35,10.76-12.16,21.6-16.94C708.25,1276.71,731,1270.9,752.79,1268.23Z"/><path class="cls-14" d="M737.41,1497.07C725.63,1527.45,709.6,1546,709.6,1546H477.1l70.23-62.62L589.22,1446l32.48-29L638.6,1402A57.55,57.55,0,0,1,651,1399c15.56-1.94,40.85,1.11,46.44,39.29,0,0,34.12,1.12,47.62,33.94A185.62,185.62,0,0,1,737.41,1497.07Z"/><path class="cls-13" d="M705.6,1112a238,238,0,0,1-18.72,17,53,53,0,0,1-3.75-6.56,46.45,46.45,0,0,1-3.7-27.09A77.9,77.9,0,0,0,705.6,1112Z"/><path class="cls-4" d="M606.5,1171a124.76,124.76,0,0,0,8.11,21.48l-23.32,10.36c-37.36-31.77-86.86-32.45-86.86-32.45a779.35,779.35,0,0,1-3.71-95c11.49,2.48,25.07,5,40.35,7.21,5.76.82,11.75,1.6,18,2.3a23.08,23.08,0,0,0,23.4-12.89c5.19-10.76,12.35-27.8,19.66-52-3.24-.46-6.71-1-10.34-1.57l7.29-26.8h0a83.51,83.51,0,0,0,15.56-3.12V956.68a38,38,0,0,0,18.06-6.28s-.8,99.76,46.76,144.92a46.45,46.45,0,0,0,3.7,27.09,53,53,0,0,0,3.75,6.56c-40.65,33.18-78.28,41.39-78.28,41.39Z"/><path class="cls-4" d="M473.87,843.42c-1.76,11.88-4.05,29.11-6.29,51.43-3.41,33.91-6.71,79.58-8,136.1-.24,10.81-.37,22-.39,33.5-.11,48.3,1.56,101.3,3.69,148.94.31,6.79.62,13.48,1,20,3.51,71.84,7.75,127,7.75,127l-189-24s-.73-6.89-1.8-19l-32.89-8.29-14.81-3.74s1-169.5,15.5-349S333.1,638,490.1,638c63.46,0,101.6,13.07,124.51,28.65h0c.91.22,61.43,14.85,58.21,80.35s-24.71,112.17-25.12,113c1.82-19.41.17-33.33-4.84-34.36-7.08-1.47-18.19,23.32-24.82,55.37-.4,2-.78,3.89-1.13,5.8a40.11,40.11,0,0,1-.11-16.42c2.23-12.52,8.86-27,16.29-46.44,14.21-37.25,10.61-55.3,10.47-56-5.44,13.58-16.18,32.2-37.46,52.3-5.09-7.6-12-12.86-20.34-14.57-22.09-4.57-45.37,17.71-52,49.75Z"/><path class="cls-4" d="M642.87,825.64c5,1,6.66,15,4.84,34.36h0a245.26,245.26,0,0,1-4,26.3,234.37,234.37,0,0,1-8,29.35c-2.81-3.34-6.16-7.37-10.14-12.21-4.64-5.65-7.39-11.08-8.68-16.64.35-1.91.73-3.85,1.13-5.8C624.68,849,635.79,824.17,642.87,825.64Z"/><path class="cls-14" d="M621.7,1417l-32.48,29-1.37-1.53c5.21-147.37-78.19-243.58-79.46-245v0c-1.63-9.56-2.92-19.35-3.95-29,0,0,49.5.68,86.86,32.45,22.63,19.23,40.81,49.89,40.81,98.72,5.45,5.46,17.82,61.56,17.82,61.56-8,17.6,1.12,36,1.12,36A57.55,57.55,0,0,0,638.6,1402Z"/><path class="cls-1" d="M616.92,886.81c1.29,5.56,4,11,8.68,16.64,4,4.84,7.33,8.87,10.14,12.21,3.71,4.4,6.47,7.62,8.5,9.93a10.28,10.28,0,0,1,.66,12.67,46.27,46.27,0,0,1-12.23,12.14,38,38,0,0,1-18.06,6.28v31.77a83.51,83.51,0,0,1-15.56,3.12c-17.76,2.06-47.8.91-74.45-22.34,13,36.2,43.35,45.13,67.16,49.15,3.63.61,7.1,1.11,10.34,1.57-7.31,24.25-14.47,41.29-19.66,52a23.08,23.08,0,0,1-23.4,12.89c-6.22-.7-12.21-1.48-18-2.3-15.28-2.19-28.86-4.73-40.35-7.21-25.72-5.54-41-10.75-41.51-10.93,0-11.48.15-22.69.39-33.5,1.27-56.52,4.57-102.19,8-136.1l1,.1a511.4,511.4,0,0,0,63.47-25.41c-1,26.24,10.92,48.3,29.71,52.18,22.09,4.57,45.36-17.71,52-49.75.15-.72.29-1.45.42-2.17l2.62.59A40.11,40.11,0,0,0,616.92,886.81Z"/><path class="cls-1" d="M643.57,768c.14.7,3.74,18.75-10.47,56-7.43,19.45-14.06,33.92-16.29,46.44l-2.62-.59c3.46-19.21.08-37.38-8.08-49.55C627.39,800.15,638.13,781.53,643.57,768Z"/><path class="cls-1" d="M535.5,867.85c31.43-15.64,54.17-32.06,70.61-47.6,8.16,12.17,11.54,30.34,8.08,49.55-.13.72-.27,1.45-.42,2.17-6.63,32-29.9,54.32-52,49.75-18.79-3.88-30.67-25.94-29.71-52.18,1.11-.54,2.21-1.08,3.3-1.63Z"/><path class="cls-5" d="M599.05,991.57h0l-7.29,26.8c-23.81-4-54.14-13-67.16-49.15C551.25,992.48,581.29,993.63,599.05,991.57Z"/><path class="cls-8" d="M587.85,1444.45l1.37,1.53-41.89,37.35c10.66-174-82.24-248.92-83.48-249.92-.33-6.54-.64-13.23-1-20,0,0,13.19,10.47,29,16.4A14.39,14.39,0,0,0,511,1213.32q-1.44-6.83-2.63-13.9C509.66,1200.87,593.06,1297.08,587.85,1444.45Z"/><path class="cls-14" d="M455.1,1546H204.6c0-149.5,43.31-236.76,43.31-236.76l32.89,8.29c1.07,12.08,1.8,19,1.8,19l189,24s-4.24-55.2-7.75-127c1.24,1,94.14,76,83.48,249.92L477.1,1546Z"/><path class="cls-1" d="M511,1213.32a14.39,14.39,0,0,1-19.17,16.47c-15.76-5.93-29-16.4-29-16.4-2.13-47.64-3.8-100.64-3.69-148.94.52.18,15.79,5.39,41.51,10.93a779.35,779.35,0,0,0,3.71,95c1,9.69,2.32,19.48,3.95,29v0Q509.58,1206.49,511,1213.32Z"/><path class="cls-15" d="M1418.32,83.71,1325.38,29.4l45.29,172.7-77.89,132.3L1228.44,71.07,1265,10.7a21.13,21.13,0,0,0-4.34,5.23l-65.14,111.45-88.23,151a21,21,0,0,0,7.54,28.76l128.88,75.33a21,21,0,0,0,24.31-2.19,20.78,20.78,0,0,0,4.46-5.35l144.66-247.51,8.71-14.9A21,21,0,0,0,1418.32,83.71ZM1219.74,313.2a19,19,0,1,1-6.82-26A19,19,0,0,1,1219.74,313.2Z"/><path class="cls-4" d="M1212.92,287.21a19,19,0,1,1-26,6.82A19,19,0,0,1,1212.92,287.21Z"/><path class="cls-8" d="M1140.83,613.18V374.45A28.85,28.85,0,0,0,1112,345.6H969.88l1.89,3.22a1190,1190,0,0,0-221.64,0l-1.87-3.19H707.69a28.86,28.86,0,0,0-28.86,28.85v253.3a28.86,28.86,0,0,0,28.86,28.85h58.44V763.31L858.9,656.6h181.43v-3.15c0-.3,0-.59,0-.89l1,.05c1.84,2.63,4.78,4.51,8,4.18,18.3-1.88,36.68-3.41,55-5.46,2.52,3,6.31,5.2,9.74,5.34a17.38,17.38,0,0,0,11.12-3.57c2.21-1.65,5.33-5.36,7.21-6a11.37,11.37,0,0,0,6.4-5.81,21.66,21.66,0,0,0,3.93-5.15C1146.89,628.43,1146.1,619.49,1140.83,613.18ZM917.55,602.49a21.34,21.34,0,0,1-2.78.7Z"/><path class="cls-16" d="M1015.64,464.52c-5.51-5.61-12.31-9.2-19.53-12-10.53-4.15-21.52-6.35-32.7-7.69-1.27-.16-1.61-.53-1.52-1.86.89-13,.87-25.95-2.3-38.71a54.11,54.11,0,0,0-6.41-15.73c-6.78-10.87-18.52-15.46-30.7-12-7.39,2.12-13.78,6.08-19.73,10.83-9,7.16-16.46,15.71-23.31,24.84-.65.86-1,1.07-2,.38a136.68,136.68,0,0,0-11.77-7.4c-9-5.11-18.3-9.36-28.46-11.51-6.3-1.33-12.63-1.64-18.85.17-9.32,2.71-15.1,9.08-17.9,18.26-2.23,7.32-2.13,14.81-1.15,22.29,1.55,11.82,5.33,23,10,33.92.5,1.18.3,1.62-.81,2.14a141.84,141.84,0,0,0-19.43,11c-8.76,6-16.73,12.75-22.34,22-7.17,11.79-5.64,24.83,4.18,34.48,6.41,6.29,14.28,10.06,22.61,13a136.74,136.74,0,0,0,29.3,6.45c1.28.15,1.64.5,1.54,1.85a138.69,138.69,0,0,0,.91,32.06,68.16,68.16,0,0,0,4,15c2.42,6,5.74,11.47,11,15.4,7.92,5.89,16.64,6.33,25.7,3.23,7.69-2.64,14.24-7.21,20.34-12.49A144.67,144.67,0,0,0,906.81,590c.55-.72.87-1.16,1.87-.47a149,149,0,0,0,21.14,12.29c9.91,4.59,20.07,8.18,31.22,7.63a26.85,26.85,0,0,0,15.07-5.14c6.38-4.74,9.5-11.34,10.74-19,1.44-8.83.45-17.53-1.52-26.2a146.48,146.48,0,0,0-8.1-24.61c-.91-2.16-.91-2.15,1.21-3.17a132,132,0,0,0,27.11-16.91c5.9-4.88,11.13-10.36,14.78-17.2C1026.52,485.6,1024.88,473.93,1015.64,464.52ZM888.4,419c7.4-9.73,15.31-19,25.47-26a35.22,35.22,0,0,1,13.24-6c7-1.37,12.31,1.24,16.24,7a57.8,57.8,0,0,1,6.42,17.71,138.17,138.17,0,0,1,.88,30.73c-.08,1-.43,1.1-1.29,1.05a288,288,0,0,0-29.53,0,14.14,14.14,0,0,0-3,.22c-1.87.5-2.94-.46-4.14-1.66a252.93,252.93,0,0,0-23.83-21.14C888.15,420.38,887.66,420,888.4,419ZM841.22,524.21c.07-.28.18-.54.36-1.06,6.27,8.38,12.77,16.28,19.69,24-1.45.71-2.88.45-4.22.48-6.22.15-12.45.06-18.67-.22-1.13-.06-1.51-.34-1.32-1.6C838.2,538.57,839.56,531.36,841.22,524.21Zm-7.55-33c-2.85-4.75-5.52-9.6-8.09-14.5-.53-1-.4-1.38.71-1.82,7-2.76,14.15-5.19,21.35-7.42a2.2,2.2,0,0,1,.57,0c-4.09,9.55-7.69,19.19-11,29.22A39.48,39.48,0,0,1,833.67,491.17Zm12.2,18.73a2,2,0,0,1-.32-1.95,321.06,321.06,0,0,1,16.3-43.4,2,2,0,0,1,1.46-1.33c8.64-2,17.31-3.84,26.09-5.15,6.57-1,13.16-1.86,19.79-2.45a1.87,1.87,0,0,1,1.69.72c7,7.31,13.56,14.9,19.75,22.86,3.22,4.14,6.29,8.39,9.46,12.56a2.93,2.93,0,0,1,.47,2.91,329.19,329.19,0,0,1-16,42.55,2.92,2.92,0,0,1-2.28,1.85c-7.33,1.63-14.67,3.19-22.39,4.33-7.3,1.37-14.95,2.25-22.62,3.1a2.11,2.11,0,0,1-1.95-.79A322.6,322.6,0,0,1,845.87,509.9ZM949,505.43a16.78,16.78,0,0,1,2.47,3.65c3.29,5.36,6.34,10.85,9.23,16.44.46.88.39,1.28-.55,1.65q-10,3.93-20.19,7.07a2.65,2.65,0,0,1-1.78.15C942.16,524.92,945.8,515.36,949,505.43Zm-4.21-27s-.06.07-.27.28c-6.26-8.24-12.77-16.26-19.83-24.09,6.19-.28,12.11-.27,18-.11,1.86.05,3.71.14,5.57.2.62,0,1.1.09,1,.93A215.85,215.85,0,0,1,944.78,478.43Zm-64.26-48c.47-.71.81-1,1.63-.37q8.9,7,17.12,14.8c.06.06.06.18.15.5-10.15,1.21-20.2,2.84-30.64,5.11,1.72-3.1,3.19-5.78,4.7-8.43Q876.83,436.11,880.52,430.41ZM810.9,416.52c2-8,7.38-12.33,15.68-12.6,6.91-.23,13.34,1.68,19.63,4.19a129,129,0,0,1,24.67,13.64c.71.48,1.3.81.6,1.86a255.18,255.18,0,0,0-16.6,29.29,2.15,2.15,0,0,1-1.52,1.27,263.66,263.66,0,0,0-29.81,9.67c-3.36,1.31-3.37,1.35-4.76-2.07a125.3,125.3,0,0,1-7.12-22.38c-.27-1.38-.64-2.75-.88-3.79C810,429,809.35,422.77,810.9,416.52Zm15.62,124c-.24,1.49-.48,3-.64,4.48-.1.91-.37,1.31-1.42,1.17-11.07-1.43-22-3.53-32.31-7.92-5.83-2.48-11.32-5.53-15.34-10.65a15.8,15.8,0,0,1-3.28-7.86c-.48-3.61,1-7.62,3.32-11.38a51.88,51.88,0,0,1,12.25-13,133,133,0,0,1,24.31-14.83c.91-.45,1.41-.35,1.89.61a257.46,257.46,0,0,0,17.09,29,2.77,2.77,0,0,1,.13,2.57A279.43,279.43,0,0,0,826.52,540.56ZM898,582.91C889.71,593.66,881,604,869.2,611a27.2,27.2,0,0,1-12.87,4.33,14.27,14.27,0,0,1-12.22-5.69,32.11,32.11,0,0,1-5.67-11.25,70,70,0,0,1-2.21-9.67,135.41,135.41,0,0,1-.63-29.23c.06-.81.3-1,1.08-1,8.33.54,16.67.48,25,.24,2.91-.09,5.83-.25,8.73-.5a2.56,2.56,0,0,1,2.25.84,264.85,264.85,0,0,0,24.91,22.2C898.17,581.81,898.54,582.16,898,582.91Zm7.77-11.21c-.5.85-.91,1-1.73.32q-8.6-6.9-16.67-14.4a3,3,0,0,1-.4-.49l15.13-2.5,15.12-2.51c-1.26,2.29-2.47,4.65-3.81,6.92C910.86,563.28,908.26,567.47,905.73,571.7ZM975,586.79c-2.21,7.2-7.2,11-14.77,11.37-7.23.38-13.94-1.64-20.5-4.3a120.71,120.71,0,0,1-21.37-11.54c-1.09-.72-2.17-1.46-3.28-2.15-.7-.43-.82-.84-.33-1.58a264.4,264.4,0,0,0,16.64-29.43,1.89,1.89,0,0,1,1.29-1.13,264.8,264.8,0,0,0,32.46-10.76c.75-.31,1-.13,1.32.6a131.14,131.14,0,0,1,8.14,24.9c.27,1.38.63,2.74.88,3.78C976.32,573.55,977,580.2,975,586.79ZM1009.25,494c-3.56,5.63-8.41,10-13.65,14a137.31,137.31,0,0,1-22.9,13.69c-.92.45-1.3.24-1.73-.61a248.34,248.34,0,0,0-16.67-28.34,3.84,3.84,0,0,1-.55-3.5,258.62,258.62,0,0,0,6.59-31.9c.13-.88.26-1.54,1.43-1.39,11.16,1.44,22.16,3.59,32.58,8,5.41,2.31,10.46,5.21,14.43,9.69a16.75,16.75,0,0,1,3.94,8.77C1013.23,485.94,1011.7,490.08,1009.25,494Z"/><path class="cls-16" d="M897,524.5A23.75,23.75,0,1,0,869.81,505,23.65,23.65,0,0,0,897,524.5Z"/><path class="cls-17" d="M710.48,1277,796.19,1303l-29.09,15.9L756,1375.43,814.6,1328l-3.41-35.57S783.4,1323.9,723.8,1328s-55.06-19.78-55.06-19.78S677.43,1288.75,710.48,1277Z"/><path class="cls-17" d="M716.8,1384s82.72-12.91,94.39,38.56c-5.67,33.47-36.9,71.49-36.9,71.49l33.84-10.58s26-16.55,30-75l.47-24s35.08-50.55-24-56.5l-30.41.72-13.13,26Z"/><path class="cls-17" d="M722.22,1446s-23,63.25-71.18,100c58.56,0,57.3,1.28,58.56,0S736.7,1504,744.11,1470C733.38,1454.5,722.22,1446,722.22,1446Z"/><path class="cls-17" d="M438.6,1376s27.62,25.38,34.6,62.38L487.12,1403v83l15.15,37.56L477.1,1546h-22S467,1436.57,438.6,1376Z"/><path class="cls-17" d="M326.93,1342.08s97.26,20.61,141.26,47.6c23.33-125.53,18.93-123,18.93-123l-23.28-30.47,7,118.46-7,5.78Z"/><path class="cls-18" d="M459.2,1119l45.25,64.31,9.81,23.5s32.92,40.93,47.56,86.47c-3-82.56-5.4-111.29-5.4-111.29L506,1170.36l-5.29-95-41.51-10.93Z"/><path class="cls-18" d="M468.6,895S601,853.28,640.94,774l-4.45,40.46S577,897.32,485.28,915.66c-4.42,83.68,34.19,163.44,34.19,163.44l-60.26-14.65Z"/><path class="cls-17" d="M1019,1197.48l-35.5,38.73s-4.53,239,146.07,309.74H1024.51s-54.68-72-61.5-220.63c-.54-69.13,2.31-107.28,2.31-107.28Z"/><path class="cls-17" d="M1019.87,1100.15s43.55,128.42,143.9,139.8l14-19.5,1.1-81.3s-18.34,24.3-65.82,22.91-88.49-68.51-88.49-68.51Z"/><path class="cls-19" d="M1008.89,929s118.63,21.81,180-54.9L1162.1,911s-20,28.38,3.38,86.38l-.43,9.43s5.29,12.47-33.45,8.19c39.92,27.72,48.52,32.65,48.52,32.65l27.09-8.69c-5,65.1-54.91,112.54-86.63,123.15,58.24-22.91,113.69-33.33,140-170.36,2-76.31,4.13-90.78,4.13-90.78s-62.68-26.23-67.59-80.57C1169.52,867.34,1156.26,899.9,1008.89,929Z"/><path class="cls-17" d="M1418.94,1406.41c.24-.05-13.42,139.54-13.42,139.54h99.58l-11.43-110.81L1445.1,1401Z"/><path class="cls-17" d="M1375.52,1212l22.23,29.56s48.44,16.39,39.11,61.44-32.57,104.67-73.29,113.87L1445.1,1401l206,145h49.09l-244.88-174.23L1476.1,1278s-12.42-40.38-36.5-46.5V1212Z"/><path class="cls-17" d="M1898.45,909l66.77-76.79h44.3l9.91,11.14V892S1965.37,858.63,1898.45,909Z"/><path class="cls-17" d="M1987.29,998.5s27,67.67,7.65,158.19-61.6,262.54-118.84,389.26h55.42S2077.73,1100.33,1987.29,998.5Z"/><path class="cls-17" d="M2104.14,1105.45s-71.95,227.89-75.28,323.22,6.66,117.28,6.66,117.28h69.64s-37-94.61-21.64-227.94S2104.14,1105.45,2104.14,1105.45Z"/><path class="cls-18" d="M1865.5,703s33.61,108.78-46.52,179.92l-25.3-60.44S1886.15,780.59,1865.5,703Z"/><path class="cls-18" d="M1593,745.84s89.55-30.68,44.06,5.74C1629.84,755,1607.7,763.67,1593,745.84Z"/><path class="cls-18" d="M1560.79,549.15c-4.5.1,32.88,26.43,112.14-6.69l-.07,30.88,58.66-15.44,46.35,68.72-31.44-106.34L1678,551.83l-11.5,2.18,10.28-33.73S1641.11,547.48,1560.79,549.15Z"/><path class="cls-18" d="M1835.33,638c-1.7-3.24,24.68,37.64,40.77-18.5L1894,639S1868.47,701.27,1835.33,638Z"/><polyline class="cls-20" points="100.1 1545.95 204.6 1545.95 455.1 1545.95 477.1 1545.95 709.6 1545.95 767.1 1545.95 972.6 1545.95 1024.51 1545.95 1220.6 1545.95 1255.73 1545.95 1505.1 1545.95 1559.1 1545.95 1651.1 1545.95 1876.1 1545.95 2105.16 1545.95 2198.1 1545.95"/><line class="cls-20" x1="1735.21" y1="1400.73" x2="1782.1" y2="1422.95"/><polyline class="cls-20" points="1476.1 1277.95 1509.77 1293.9 1675.8 1372.58 1735.2 1400.73"/><polyline class="cls-20" points="1651.1 1545.95 1593.01 1505.06 1493.67 1435.14 1445.1 1400.95"/><path class="cls-20" d="M1981.1,990s47,40,0,235-105,321-105,321"/><path class="cls-20" d="M1782.1,1388l-46.89,12.78h0s1.38-6.65,3.81-18.3c2.88-13.85,7.24-34.79,12.5-60,16.12-77.23,40.73-194.78,57.59-273.44,27-126,114-112,114-112"/><line class="cls-20" x1="1490.1" y1="1383.95" x2="1509.77" y2="1293.9"/><path class="cls-20" d="M1255.73,1299.13l2.34,12a49.57,49.57,0,0,0,27.52,35.48,8.59,8.59,0,0,0,2,.79c.55,0,5,11.15,10.23,25.12a68.52,68.52,0,0,0,78.09,42.81L1445.1,1401l31-123-5.46-13.49a56.14,56.14,0,0,0-45.78-34.74L1409.1,1228l-2.27,3a106.42,106.42,0,0,1-74.95,41.92l-67.75,6.43-12,1.14,3.63,18.67"/><polyline class="cls-20" points="1264.13 1279.31 1264.13 1239.95 1264.13 1229.95 1264.13 1211.95 1372.1 1211.95 1439.6 1211.95 1439.6 1231.45"/><line class="cls-20" x1="1344.6" y1="1239.95" x2="1264.13" y2="1239.95"/><path class="cls-20" d="M1421.09,951.08c-17.73,14.69-25.68,40.2-19.42,62.36,4.94,17.49,17.53,31.88,23.71,49,9.6,26.6,1.39,58.67-19.81,77.38"/><path class="cls-20" d="M1362.59,1088.44a85.11,85.11,0,0,0-20.73,99.12"/><path class="cls-20" d="M1751.51,1322.39l-7.41-283.77,32.66-40-16.55-33.72-6.78-13.82a649,649,0,0,1,71-55.32c31.72-21.46,71-43.87,111-56.48,18-5.52,32.51-8,44-8.68,30.2-1.8,40,8.68,40,8.68V892s87.67,24,85.67,178.67-35.34,288.66-24.67,368.66S2105.16,1546,2105.16,1546"/><path class="cls-20" d="M1891.43,915.28s58-60,128-23.33"/><path class="cls-20" d="M1560.79,549.15a130.33,130.33,0,0,0-4,43.68,105.13,105.13,0,0,0,7.92,33.12c33.34,30,40,28,34,74.67l-6,46.66s24.23,17.52,44.25,4.3a32.51,32.51,0,0,0,4.42-3.51"/><path class="cls-20" d="M1840.35,608.51a47.18,47.18,0,0,1,2.94-42.65"/><path class="cls-20" d="M1852.88,589.61l-11.39-3.85"/><path class="cls-20" d="M1863.9,699.42c10.53,21.09,6.31,47.33-5.91,67.48s-31.39,35.12-51.32,47.71q-6.42,4-13,7.83a373.44,373.44,0,0,1-54.87,25.92c-9.33,3.5-19.47,6.67-29.1,4.12-8.19-2.17-14.87-8.29-19.47-15.4s-7.38-15.21-10.11-23.22q4.81-2.57,9.36-5.57a122.62,122.62,0,0,0,51.77-75.23,127.56,127.56,0,0,1-70.8,42.16c-1.31.27-2.64.53-4,.74-6.33,1-12.84,1.13-18.68-1.34l-10.79-23"/><path class="cls-20" d="M1793.68,822.44l30.7,73.32"/><path class="cls-20" d="M1521.43,542s14.74,5.88,39.36,7.2c28.15,1.52,69.22-2.91,116-28.87-5.33,33.34-7,35.34-7,35.34l76.67-35.34s36,123.34,37,123.67,28-20,28-20l-2.28-52.38c3.22-9.64,7.75-19.23,15.49-25.82s19.27-9.53,28.33-4.92c10.4,5.3,14.24,18.07,16.21,29.58a243.53,243.53,0,0,1,3.47,39.89c0,1.77,0,3.55-.07,5.33a50.68,50.68,0,0,1-3.1,17.21c-2.84,7.08-8.59,13.4-16,15.09s-16.29-2.55-18.12-10"/><path class="cls-20" d="M1555.46,592.94s-64.36-8-88-64.32l20.67.66s-13.34-28-17.67-58c37.67-13,67-42.66,153.67-54.66-29.67-22.34-31.34-22.34-31.34-22.34s132.67-59.66,196.34,12l5-34s29.33,20,30.66,55.34c34.67,11,47.89,22,47.89,22L1853.1,462s53,59.33,61.33,199.33l-41.85-45.65"/><line class="cls-20" x1="1979.43" y1="830.39" x2="1914.43" y2="661.28"/><line class="cls-20" x1="1666.48" y1="775.96" x2="1689.49" y2="808.29"/><path class="cls-20" d="M1633.1,657.45s6.77-32,44.88-23"/><path class="cls-20" d="M1597.54,602.45s47.06-22,88.56-9"/><path class="cls-20" d="M1195.66,823.24c-22.57,44.26-73.69,98.49-188.88,101.48q-11.56.31-24-.1"/><path class="cls-20" d="M1213.3,766s-1.77,26.18-17.64,57.28"/><path class="cls-20" d="M882.2,1249.86c-74.67-122,29.23-182.58,21.9-219.91s-19.34-92.67-10.67-130.67,47.33-35.33,46-65.66,2.25-61.84,79.59-117,70-3.45,148.29-17.45S1247,736.45,1247,736.45s53.74-3.17,69.08,47.5,15.17,51.33,39.58,82,39.42,70-11.08,111.33c-36.95,30.25-17.07,92.45,1.29,131.54a294.4,294.4,0,0,0,16.7,31c12.84,20.16,28.84,41.49,9.51,72.16"/><path class="cls-20" d="M1006.78,924.74s8.66,51-9.11,87.51a66.72,66.72,0,0,1-14.91,20.37c-36.57,33.25,66.28,92.15,4.14,177.16l-.44.6"/><path class="cls-20" d="M1195.66,823.23h0c.07,1,4.23,54.16,69,77.68a166,166,0,0,0,23.41,6.53"/><path class="cls-20" d="M1261.51,972.48a106.46,106.46,0,0,0,2.62,15.47c8,31.33,11.3,78.67-23.37,135.33-16.84,27.53-18.89,49.23-16.54,64.28,2.48,15.93,9.88,24.39,9.88,24.39s12.06,16,30,18"/><path class="cls-20" d="M1264.13,902.44s-5.79,39-2.62,70"/><path class="cls-20" d="M997.67,1012.25a262.22,262.22,0,0,0,21.35,70.52c17,35.9,46.56,72.9,96.91,77.18,17.43,1.48,40.33-4.8,62.89-20.8,37.11-26.32,73.29-79,82.69-166.67v0"/><path class="cls-20" d="M1045.6,951.08s23-28.78,56-5.45"/><path class="cls-20" d="M1172.6,940.06S1192,916.5,1223.41,938"/><path class="cls-20" d="M1069.6,1047.45s88.5,20.5,139.5-12.5C1183.1,1091.45,1123.6,1142,1069.6,1047.45Z"/><path class="cls-20" d="M1096.6,1119s24,9,42.75,6"/><path class="cls-20" d="M1162.1,911s-16,24-6,58.5a288.4,288.4,0,0,0,9.38,27.88,11.33,11.33,0,0,1-9.55,15.54L1131.6,1015"/><path class="cls-20" d="M1019,1082.75v0l5.49,112.61,1.59,32.57s32,44.5,99,32c31-7,41.25-20.5,52.62-39.5.23-17.23.42-30.8.56-41.5l.54-39.8"/><line class="cls-20" x1="1178.29" y1="1178.95" x2="1224.21" y2="1187.56"/><polyline class="cls-20" points="1024.51 1195.38 986.9 1209.78 965.32 1218.04 882.2 1249.86 811.19 1277.04"/><path class="cls-20" d="M535.37,867.91c-1.09.55-2.19,1.09-3.3,1.63A511.4,511.4,0,0,1,468.6,895"/><path class="cls-20" d="M649.1,746s-.14,8.5-5.53,22-16.18,32.2-37.46,52.3c-16.44,15.54-39.18,32-70.61,47.6"/><path class="cls-20" d="M477.1,824s-1.31,6.6-3.23,19.47c-1.76,11.88-4.05,29.11-6.29,51.43-3.41,33.91-6.71,79.58-8,136.1-.24,10.81-.37,22-.39,33.5-.11,48.3,1.56,101.3,3.69,148.94.31,6.79.62,13.48,1,20,3.51,71.84,7.75,127,7.75,127l-189-24s-.73-6.89-1.8-19c-2.78-31.46-7.84-98.13-8.2-170"/><path class="cls-20" d="M614.61,666.6C591.7,651,553.56,638,490.1,638c-157,0-227,139-241.5,318.5s-15.5,349-15.5,349l14.81,3.74,32.89,8.29"/><path class="cls-20" d="M649.1,718s-.71-28.39-34.48-51.35"/><path class="cls-20" d="M643.56,767.93a0,0,0,0,0,0,0c.14.7,3.74,18.75-10.47,56-7.43,19.45-14.06,33.92-16.29,46.44a40.11,40.11,0,0,0,.11,16.42c1.29,5.56,4,11,8.68,16.64,4,4.84,7.33,8.87,10.14,12.21,3.71,4.4,6.47,7.62,8.5,9.93a10.28,10.28,0,0,1,.66,12.67,46.27,46.27,0,0,1-12.23,12.14,38,38,0,0,1-18.06,6.28A45.42,45.42,0,0,1,602.1,956"/><path class="cls-20" d="M614.61,956.68v31.77a83.51,83.51,0,0,1-15.56,3.12c-17.76,2.06-47.8.91-74.45-22.34,13,36.2,43.35,45.13,67.16,49.15,3.63.61,7.1,1.11,10.34,1.57-7.31,24.25-14.47,41.29-19.66,52a23.08,23.08,0,0,1-23.4,12.89c-6.22-.7-12.21-1.48-18-2.3-15.28-2.19-28.86-4.73-40.35-7.21-25.72-5.54-41-10.75-41.51-10.93h0"/><path class="cls-20" d="M581.6,877s-.32-31-46.1-9.1l-.13.06c-.8.38-1.61.78-2.44,1.2"/><path class="cls-20" d="M614.19,869.8c-.13.72-.27,1.45-.42,2.17-6.63,32-29.9,54.32-52,49.75-18.79-3.88-30.67-25.94-29.71-52.18a84.06,84.06,0,0,1,1.71-14.11c6.62-32,29.9-54.32,52-49.75,8.3,1.71,15.25,7,20.34,14.57C614.27,832.42,617.65,850.59,614.19,869.8Z"/><path class="cls-20" d="M647.71,860a245.26,245.26,0,0,1-4,26.3,234.37,234.37,0,0,1-8,29.35"/><path class="cls-20" d="M616.91,886.84a0,0,0,0,1,0,0c.35-1.91.73-3.85,1.13-5.8,6.63-32,17.74-56.84,24.82-55.37,5,1,6.66,15,4.84,34.36"/><line class="cls-20" x1="533.78" y1="855.43" x2="473.87" y2="843.42"/><line class="cls-20" x1="599.05" y1="991.58" x2="591.76" y2="1018.38"/><path class="cls-20" d="M508.39,1199.42q1.19,7.07,2.63,13.9a14.39,14.39,0,0,1-19.17,16.47c-15.76-5.93-29-16.4-29-16.4"/><path class="cls-20" d="M500.72,1075.38a779.35,779.35,0,0,0,3.71,95c1,9.69,2.32,19.48,3.95,29"/><path class="cls-20" d="M477.1,1546l70.23-62.62L589.22,1446l32.48-29L638.6,1402A57.55,57.55,0,0,1,651,1399c15.56-1.94,40.85,1.11,46.44,39.29A115.69,115.69,0,0,1,698.6,1456"/><path class="cls-20" d="M709.6,1546s16-18.5,27.81-48.88a185.62,185.62,0,0,0,7.69-24.8c-13.5-32.82-47.62-33.94-47.62-33.94"/><path class="cls-20" d="M247.91,1309.19S204.6,1396.45,204.6,1546"/><path class="cls-20" d="M438.6,1376s21.76,27.88,20.7,110a563.62,563.62,0,0,1-4.2,60"/><polyline class="cls-20" points="487.12 1402.95 459.3 1485.92 459.29 1485.95"/><path class="cls-20" d="M463.84,1233.41h0c1.24,1,94.14,76,83.48,249.92"/><path class="cls-20" d="M508.38,1199.4v0c1.27,1.45,84.67,97.66,79.46,245"/><path class="cls-20" d="M651,1399s-9.12-18.35-1.12-36c3.21-7.08,9.21-14,19.68-19.64,5.5,32,12,33.18,32,39.09s82-4.59,113-54.59c35.5,0,37,28,24,56.5,1.5,41-8.5,74.5-24,93.5-7.62,9.34-26.41,14.12-43.54,16.56a271.45,271.45,0,0,1-33.65,2.56h0"/><path class="cls-20" d="M672.5,1299.89c4-6.35,10.76-12.16,21.6-16.94,14.15-6.24,36.87-12,58.69-14.72,26.37-3.24,51.41-1.89,58.4,8.81a11.74,11.74,0,0,1,1.91,5.91c1.5,27.5,1.5,45,1.5,45"/><path class="cls-20" d="M669.6,1343.45c-2-14-5.71-30,2.9-43.55"/><path class="cls-20" d="M813.1,1283c0,19.48-21,29.45-57,39s-100.69,15.4-83.6-22h0"/><path class="cls-20" d="M688.46,1074.26a45.8,45.8,0,0,0-9,21.06,46.45,46.45,0,0,0,3.7,27.09,53,53,0,0,0,3.75,6.56c7.63,11.46,19.13,20.33,27.16,31.7a67.56,67.56,0,0,1-10,89.19"/><path class="cls-20" d="M771.06,1206.76a81,81,0,0,0-18.7,46.34,79.69,79.69,0,0,0,.43,15.13,80.86,80.86,0,0,0,11.88,33.3"/><path class="cls-20" d="M583.1,1260s40.21,57.62,38.6,157.06"/><path class="cls-20" d="M504.43,1170.36s49.5.68,86.86,32.45c22.63,19.23,40.81,49.89,40.81,98.72,5.45,5.46,17.82,61.56,17.82,61.56"/><path class="cls-20" d="M614.61,666.6h0c.91.22,61.43,14.85,58.21,80.35s-24.71,112.17-25.12,113h0"/><path class="cls-20" d="M632.67,950.4s-.8,99.76,46.76,144.92A77.9,77.9,0,0,0,705.6,1112a238,238,0,0,1-18.72,17c-40.65,33.18-78.28,41.39-78.28,41.39"/><path class="cls-20" d="M595.41,1107s2.62,34.83,11.08,64h0a124.76,124.76,0,0,0,8.11,21.48l-23.32,10.36"/><path class="cls-20" d="M370.1,1220.45s-8.5-62,7-343.5"/><path class="cls-20" d="M328.6,936.45s2.5-111.5,34-175.5"/><line class="cls-20" x1="548.23" y1="1126.95" x2="541.07" y2="1082.59"/><path class="cls-20" d="M965.32,1218S940.42,1411,1024.51,1546"/><path class="cls-20" d="M1255.73,1299.12h0c0,1.4-2.33,118.1-35.13,246.82"/><path class="cls-20" d="M1012.6,1277s100.3,68.41,188.65-17.09"/><path class="cls-20" d="M1084.1,1349s64,6.5,113-54"/><path class="cls-20" d="M872.6,1398.6l93.31,137.49,6.69,9.86q-3.48-4.82-6.69-9.86C905.71,1441.81,914.1,1295,914.1,1295"/><path class="cls-20" d="M1290.6,1408.45s-10.74,100.5-34.87,137.5l64.87-76"/><polyline class="cls-20" points="1711.8 1100.15 1704.6 1025.45 1744.1 997.95 1735.2 972.46 1760.21 964.9"/><line class="cls-20" x1="1739" y1="1382.43" x2="1711.8" y2="1100.16"/><path class="cls-20" d="M1195.53,127.38h-142.1a28.85,28.85,0,0,0-28.85,28.85V412.9a25.48,25.48,0,0,0,25.48,25.48h256.45l92.77,106.71V438.38h58.44a28.86,28.86,0,0,0,28.86-28.85V156.23a28.86,28.86,0,0,0-28.86-28.85h-40.57"/><line class="cls-20" x1="771.06" y1="1494.51" x2="767.1" y2="1545.95"/><line class="cls-20" x1="1493.67" y1="1435.14" x2="1505.1" y2="1545.95"/><polyline class="cls-20" points="1711.8 1100.15 1711.8 1100.16 1675.8 1372.58"/><line class="cls-20" x1="1593.01" y1="1505.07" x2="1559.1" y2="1545.95"/><line class="cls-20" x1="5.5" y1="1598.26" x2="506.01" y2="1598.26"/><line class="cls-20" x1="595.41" y1="1598.26" x2="684.96" y2="1598.26"/><line class="cls-20" x1="1794.85" y1="1598.26" x2="2328.88" y2="1598.26"/><line class="cls-20" x1="1655.54" y1="1598.26" x2="1576.05" y2="1598.26"/><path class="cls-20" d="M1268,380.24a21,21,0,0,1-24.3,2.19L1114.84,307.1a21,21,0,0,1-7.55-28.76l88.24-151,65.14-111.45a21,21,0,0,1,28.76-7.55l36,21,92.93,54.31a21,21,0,0,1,7.55,28.77l-8.71,14.9L1272.48,374.89A20.78,20.78,0,0,1,1268,380.24Z"/><path class="cls-20" d="M1219.73,313.2a19,19,0,1,1-6.81-26A19,19,0,0,1,1219.73,313.2Z"/><line class="cls-20" x1="1325.38" y1="29.4" x2="1344.75" y2="103.27"/><line class="cls-20" x1="1246.88" y1="151.84" x2="1295.06" y2="335.6"/><polyline class="cls-20" points="1255.99 334.4 1268.03 380.24 1268.13 380.67"/><path class="cls-20" d="M1140.83,438.38V631.12a25.47,25.47,0,0,1-25.47,25.48H858.9L766.13,763.31V656.6H707.69a28.86,28.86,0,0,1-28.86-28.85V374.45a28.86,28.86,0,0,1,28.86-28.85h316.89"/></g></g></svg>